<svg width="32" height="32" viewBox="0 0 32 32" fill="none" xmlns="http://www.w3.org/2000/svg">
<path d="M22.5062 3.83999C22.3514 3.68478 22.1675 3.56163 21.965 3.47761C21.7625 3.39359 21.5455 3.35034 21.3262 3.35034C21.107 3.35034 20.8899 3.39359 20.6874 3.47761C20.485 3.56163 20.301 3.68478 20.1462 3.83999L8.93289 15.0533C8.80929 15.1767 8.71123 15.3232 8.64432 15.4845C8.57741 15.6458 8.54297 15.8187 8.54297 15.9933C8.54297 16.1679 8.57741 16.3409 8.64432 16.5022C8.71123 16.6635 8.80929 16.81 8.93289 16.9333L20.1462 28.1467C20.7996 28.8 21.8529 28.8 22.5062 28.1467C23.1596 27.4933 23.1596 26.44 22.5062 25.7867L12.7196 16L22.5196 6.19999C23.1596 5.54665 23.1596 4.49332 22.5062 3.83999Z" fill="#848586"/>
</svg>
