<svg width="32" height="32" viewBox="0 0 32 32" fill="none" xmlns="http://www.w3.org/2000/svg">
<path d="M4 23V28H9L23.7467 13.2533L18.7467 8.2533L4 23ZM27.6133 9.38663C27.7369 9.26328 27.835 9.11676 27.9019 8.95546C27.9688 8.79416 28.0033 8.62125 28.0033 8.44663C28.0033 8.27201 27.9688 8.0991 27.9019 7.9378C27.835 7.7765 27.7369 7.62998 27.6133 7.50663L24.4933 4.38663C24.37 4.26302 24.2235 4.16496 24.0622 4.09805C23.9009 4.03114 23.728 3.9967 23.5533 3.9967C23.3787 3.9967 23.2058 4.03114 23.0445 4.09805C22.8832 4.16496 22.7367 4.26302 22.6133 4.38663L20.1733 6.82663L25.1733 11.8266L27.6133 9.38663Z" fill="#848586"/>
</svg>
