<svg width="64" height="64" viewBox="0 0 64 64" fill="none" xmlns="http://www.w3.org/2000/svg">
<g clip-path="url(#clip0)">
<path d="M55.0006 35.1001L62.5006 42.5001L29.2006 58.4001C29.2006 58.4001 24.8006 60.4001 22.7006 57.2001C14.5006 44.4001 55.0006 35.1001 55.0006 35.1001Z" fill="#962C2C"/>
<path d="M28.3997 49.1C28.3997 49.1 21.9997 51.3 23.1997 55.6C24.3997 60 29.4997 57.3 29.4997 57.3L61.0997 42.6C61.0997 42.6 59.2997 37.9 62.4997 34.8L28.3997 49.1Z" fill="#D9E3E8"/>
<path d="M33.7002 5L64.0002 34.5L28.2002 48.5L5.2002 12.7L33.7002 5Z" fill="#ED4C5C"/>
<path d="M34.5996 11.7L40.3996 17.8999L18.6996 25.6999L13.5996 17.7999L34.5996 11.7Z" fill="white"/>
<path d="M61.0004 38.0001L39.9004 46.6001L60.7004 37.1001L61.0004 38.0001Z" fill="#94989B"/>
<path d="M60.7002 40.6001L38.2002 49.9001L60.3002 39.6001L60.7002 40.6001Z" fill="#94989B"/>
<path d="M60.9002 42.0001L32.2002 54.4001L60.5002 41.1001L60.9002 42.0001Z" fill="#94989B"/>
<path d="M22.7 57.2001C19.2 49.9001 28.2 48.6001 28.2 48.6001L5.2 12.7001C5.2 12.7001 0 12.6001 0 18.0001C0 20.2001 1 21.9001 1 21.9001L22.7 57.2001Z" fill="#C94747"/>
</g>
<defs>
<clipPath id="clip0">
<rect width="64" height="64" fill="white"/>
</clipPath>
</defs>
</svg>
