<svg width="32" height="32" viewBox="0 0 32 32" fill="none" xmlns="http://www.w3.org/2000/svg">
<path d="M19.1998 6.40001H23.9998C24.9598 6.40001 25.5998 7.04001 25.5998 8.00001V9.60001H4.7998V8.00001C4.7998 7.04001 5.5998 6.40001 6.3998 6.40001H11.1998C11.5198 4.64001 13.2798 3.20001 15.1998 3.20001C17.1198 3.20001 18.8798 4.64001 19.1998 6.40001ZM12.7998 6.40001H17.5998C17.2798 5.44001 16.1598 4.80001 15.1998 4.80001C14.2398 4.80001 13.1198 5.44001 12.7998 6.40001ZM6.3998 11.2H23.9998L22.5598 27.36C22.5598 28.16 21.7598 28.8 20.9598 28.8H9.4398C8.6398 28.8 7.9998 28.16 7.8398 27.36L6.3998 11.2Z" fill="#D3455A"/>
</svg>
